<svg width="42" height="42" viewBox="0 0 42 42" fill="none" xmlns="http://www.w3.org/2000/svg">
<rect width="42" height="42" rx="10" fill="#F67A01"/>
<path fill-rule="evenodd" clip-rule="evenodd" d="M17.2688 17.7138H25.7312C28.0886 17.7138 30 19.583 30 21.8885V26.8253C30 29.1308 28.0886 31 25.7312 31H17.2688C14.9114 31 13 29.1308 13 26.8253V21.8885C13 19.583 14.9114 17.7138 17.2688 17.7138ZM21.4949 26.3294C21.9928 26.3294 22.3891 25.9419 22.3891 25.455V23.2489C22.3891 22.7719 21.9928 22.3843 21.4949 22.3843C21.0072 22.3843 20.6109 22.7719 20.6109 23.2489V25.455C20.6109 25.9419 21.0072 26.3294 21.4949 26.3294Z" fill="white"/>
<path opacity="0.4" d="M27.023 16.396V17.8667C26.6673 17.7673 26.2913 17.7176 25.9052 17.7176H25.2447V16.396C25.2447 14.3787 23.5681 12.739 21.5053 12.739C19.4426 12.739 17.7659 14.3687 17.7558 16.3761V17.7176H17.1055C16.7092 17.7176 16.3332 17.7673 15.9775 17.8766V16.396C15.9877 13.4148 18.4569 11 21.485 11C24.5537 11 27.023 13.4148 27.023 16.396Z" fill="white"/>
</svg>
